<?xml version="1.0" encoding="UTF-8"?>
<svg xmlns="http://www.w3.org/2000/svg" id="Layer_2" viewBox="0 0 219.88 66.87">
  <defs>
    <style>.cls-1,.cls-2{fill:#606161;}.cls-3{fill:#f47920;}.cls-3,.cls-2{fill-rule:evenodd;}</style>
  </defs>
  <g id="Layer_1-2">
    <g>
      <path class="cls-2" d="M141.98,14.39h-5.19c-.58,0-.93,.18-1.16,.8l-5.99,18.25h-1.2l-2-18.29c-.04-.62-.36-.75-.89-.75h-5.15c-.57,0-.93,.4-.93,.93v.18l3.55,21.49c.05,.4,.27,.71,.71,.71h3.33l-.8,2.04c-.71,1.87-1.91,2.58-4.22,2.58-.93,0-1.91-.09-2.58-.09h-.09c-.62,0-.8,.44-.89,.89l-.4,2.75v.18c0,.4,.18,.58,.58,.67,.62,.09,1.42,.31,4.48,.31,5.86,0,7.77-2.67,9.46-6.8l10.03-24.73c.09-.18,.09-.31,.09-.4,0-.4-.27-.71-.76-.71"></path>
      <path class="cls-2" d="M150.2,38.09c2.57,0,3.95-.49,4.35-.67,.09,0,.53-.27,.53-.75v-.04l-.18-3.06c-.04-.31-.13-.53-.49-.53-.04,0-.09,.04-.18,.04-.35,.05-.8,.14-1.51,.14-.44,0-.89-.14-1.15-.49-.22-.22-.35-.58-.35-1.07,0-.89,.13-1.69,.27-2.49l2.97-24.11v-.13c0-.44-.27-.62-.66-.62h-.22l-5.24,.84c-.62,.09-.75,.36-.84,.93l-2.8,22.68c-.13,1.11-.44,2.67-.44,4,0,1.6,.44,2.93,1.46,3.86,.93,.93,2.44,1.47,4.49,1.47"></path>
      <path class="cls-2" d="M74.11,37.69h5.19c.49,0,.89-.35,.98-.8l5.19-26.87h1.42l3.02,21.1c.09,.44,.31,.84,.84,.84h6.93c.58,0,.89-.4,1.07-.8l8.61-21.15h1.38l-1.73,26.87v.04c0,.45,.31,.75,.8,.75h5.59c.49,0,.98-.35,.98-.8l1.15-31.12v-.04c0-.44-.35-.8-.84-.8h-10.92c-.49,0-.89,.4-1.02,.84l-7.06,18.66h-.22l-2.4-18.66c-.04-.44-.36-.84-.84-.84h-11.46c-.49,0-.93,.36-1.02,.84l-6.44,31.12s-.04,.09-.04,.13c0,.4,.4,.67,.84,.67"></path>
      <path class="cls-2" d="M179.9,33.03l1.24-9.94c.18-1.11,.31-2.35,.31-3.51,0-1.91-.53-3.46-2.22-4.48-1.38-.84-3.46-1.29-6.57-1.29-4.75,0-9.06,1.2-10.08,1.6-.31,.09-.62,.31-.62,.8v.09l.27,3.06c.04,.27,.22,.4,.49,.4,.09,0,.18-.05,.31-.09,1.2-.27,4.71-1.2,7.59-1.2,1.46,0,2.49,.13,3.11,.44,.62,.31,.84,.75,.84,1.42s-.22,2.17-.22,2.17l-7.86,1.24c-2.22,.31-4.62,.8-6.21,2.75-1.15,1.47-1.64,3.51-1.64,5.42,0,2.31,.8,3.78,2.09,4.71,1.95,1.42,5.02,1.64,7.9,1.64,2.62,0,4.71-.22,6.39-.62,3.15-.67,4.44-1.24,4.88-4.62m-6.84,.44c-.62,.18-2.09,.49-3.73,.49-1.07,0-2.44-.09-3.2-.89-.44-.44-.66-1.02-.66-1.91s.22-1.95,.8-2.66c.67-.8,1.69-.98,2.8-1.15l4.84-.76-.84,6.88Z"></path>
      <path class="cls-2" d="M118.32,53.8h-.98c-.14,0-.23,.09-.28,.19l-2.86,6.79h-.4l-1.34-6.79c-.03-.1-.06-.19-.22-.19h-.92c-.11,0-.19,.12-.19,.22v.05l1.65,7.34c.03,.15,.14,.24,.29,.24h1.63c.14,0,.28-.09,.34-.24l3.41-7.38s.03-.04,.03-.07c0-.09-.08-.15-.17-.15"></path>
      <path class="cls-2" d="M106.72,53.6c-2.5,0-3.44,1.09-3.87,2.63-.25,.84-.39,1.91-.39,2.83,0,.82,.17,1.52,.67,2.02,.48,.48,1.28,.76,2.55,.76,3.25,0,3.87-1.87,4.17-4.11,.05-.43,.09-.85,.09-1.24,0-.88-.14-1.61-.67-2.12-.48-.48-1.28-.76-2.55-.76m1.83,4.12c-.25,1.88-.5,3.15-2.77,3.15-.75,0-1.25-.13-1.56-.39-.39-.31-.5-.81-.5-1.43,0-.73,.16-1.94,.33-2.65,.3-1.15,.86-1.85,2.54-1.85,.81,0,1.31,.15,1.62,.45,.34,.31,.45,.79,.45,1.38,0,.39-.05,.84-.11,1.35"></path>
      <path class="cls-2" d="M77.68,50.61h-4.12c-.14,0-.26,.1-.28,.24l-1.35,10.55v.03c0,.12,.09,.21,.22,.21h4.14c2.89,0,4.81-.52,5.68-3.76,.29-1.09,.45-2.25,.45-3.37,0-1.28-.25-2.1-.7-2.7-.78-.99-2.18-1.2-4.03-1.2m3.02,6.83c-.65,2.73-2.04,3.09-4.46,3.09h-2.88l1.14-8.83h2.86c1.59,0,2.69,.13,3.25,.97,.31,.45,.45,1.07,.45,2.02s-.14,1.87-.36,2.76"></path>
      <path class="cls-2" d="M93.76,53.92c-.16-.04-1.15-.31-2.49-.31-.93,0-2.1,.19-2.82,.93-.45,.46-.67,1.12-.67,1.75,0,.52,.19,.9,.45,1.15,.56,.57,1.53,.66,2.01,.73,.75,.12,1.42,.13,1.77,.45,.17,.15,.26,.36,.26,.67h0c0,.39-.11,.76-.39,1.03-.37,.37-1.03,.54-1.87,.54-1.29,0-2.33-.39-2.46-.43h-.08c-.11,0-.17,.06-.19,.14l-.23,.58s-.02,.05-.02,.06c0,.09,.06,.12,.12,.13,.19,.08,1.32,.51,2.69,.51,1.21,0,2.35-.21,3.03-.96,.45-.51,.65-1.18,.65-1.82,0-.79-.26-1.22-.7-1.49-.51-.3-1.24-.37-1.94-.46-.48-.07-1.01-.13-1.37-.31-.3-.15-.5-.39-.5-.76,0-.34,.12-.69,.39-.93,.4-.36,1.09-.49,1.83-.49,.92,0,2.04,.26,2.26,.28h.03s.12-.03,.14-.12l.2-.66v-.04c0-.08-.03-.14-.14-.15"></path>
      <path class="cls-2" d="M101.67,53.99c-.37-.16-1.43-.39-2.35-.39-2.01,0-3.08,.63-3.65,1.96-.42,.93-.64,2.41-.64,3.5,0,.94,.22,1.63,.73,2.09,.5,.46,1.31,.69,2.52,.69,.9,0,2.02-.22,2.44-.39,.05-.03,.17-.08,.17-.24v-.03l-.05-.48c-.02-.12-.06-.18-.16-.18-.03,0-.06,.01-.11,.01-.34,.09-1.31,.33-2.13,.33-.78,0-1.32-.12-1.66-.45-.33-.33-.47-.82-.47-1.55,0-.85,.17-2.15,.5-2.91,.42-1.02,1.15-1.38,2.44-1.38,.83,0,1.73,.27,2.05,.36,.03,0,.06,.01,.08,.01,.11,0,.17-.06,.2-.18l.19-.51s.02-.08,.02-.1c0-.1-.08-.13-.12-.16"></path>
      <path class="cls-2" d="M85.77,53.8h-.76c-.14,0-.25,.09-.26,.22l-.95,7.4v.03c0,.12,.08,.19,.2,.19h.78c.14,0,.23-.09,.25-.22l.95-7.4v-.04c0-.1-.08-.18-.2-.18"></path>
      <path class="cls-2" d="M86.21,50.4h-.76c-.14,0-.25,.09-.26,.22l-.22,1.61v.03c0,.1,.09,.18,.22,.18h.76c.14,0,.23-.09,.25-.21l.22-1.61v-.03c0-.12-.08-.19-.2-.19"></path>
      <path class="cls-2" d="M182.98,50.4h-.76c-.14,0-.25,.09-.26,.22l-.22,1.61v.03c0,.1,.09,.18,.22,.18h.76c.14,0,.23-.09,.25-.21l.22-1.61v-.03c0-.12-.08-.19-.2-.19"></path>
      <path class="cls-2" d="M123.16,53.6c-1.31,0-2.29,.3-2.97,.97-.78,.76-1.28,2.45-1.28,4.02,0,1.42,.16,3.24,3.39,3.24,.97,0,1.96-.15,2.86-.43,.11-.03,.19-.09,.19-.18v-.04l-.14-.58c-.02-.1-.06-.13-.12-.13-.03,0-.06,0-.09,.01-.76,.19-1.59,.4-2.36,.4-1.4,0-2.47-.39-2.47-1.93,0-.15,.01-.28,.01-.28,4.04-.15,6-.18,6-2.66,0-1.96-1.35-2.41-3.02-2.41m-2.91,4.14c.12-1.63,.64-3.2,2.75-3.2,1.1,0,1.88,.39,1.88,1.48,0,1.64-1.35,1.53-4.63,1.72"></path>
      <path class="cls-2" d="M182.55,53.8h-.76c-.14,0-.25,.09-.26,.22l-.95,7.4v.03c0,.12,.08,.19,.2,.19h.78c.14,0,.23-.09,.25-.22l.95-7.4v-.04c0-.1-.08-.18-.2-.18"></path>
      <path class="cls-2" d="M179.54,53.8h-2.6l.31-2.45v-.04c0-.08-.03-.15-.12-.15h-.06l-.86,.21c-.12,.01-.2,.06-.22,.18l-1.03,8c-.03,.24-.06,.46-.06,.7,0,.55,.19,.96,.53,1.22,.34,.25,.84,.37,1.51,.37,.9,0,1.59-.18,1.95-.28,.06-.01,.14-.09,.14-.18l-.06-.55c-.02-.09-.09-.13-.17-.13h-.03c-.33,.08-.98,.19-1.45,.19-.39,0-.68-.03-.89-.16-.19-.12-.29-.31-.29-.64,0-.18,.05-.36,.06-.52l.62-4.8h2.6c.14,0,.25-.09,.26-.22l.06-.51v-.03c0-.12-.08-.19-.2-.19"></path>
      <path class="cls-2" d="M198.02,53.6c-.99,0-2.58,.22-3.42,.49-.81,.25-.87,.52-.95,1.12l-.79,6.2v.03c0,.12,.08,.19,.2,.19h.78c.14,0,.22-.09,.23-.22l.82-6.44s1.52-.42,2.99-.42c.51,0,.85,.07,1.07,.27,.16,.15,.25,.37,.25,.67,0,.22-.03,.43-.06,.64l-.67,5.28s-.01,.03-.01,.03c0,.12,.08,.19,.22,.19h.76c.14,0,.23-.09,.26-.22l.67-5.26c.03-.27,.08-.55,.08-.84,0-.54-.12-.91-.39-1.18-.39-.39-1.06-.54-2.04-.54"></path>
      <path class="cls-2" d="M208.26,53.92c-.16-.04-1.15-.31-2.49-.31-.93,0-2.1,.19-2.82,.93-.45,.46-.67,1.12-.67,1.75,0,.52,.19,.9,.45,1.15,.56,.57,1.53,.66,2.01,.73,.75,.12,1.41,.13,1.77,.45,.17,.15,.26,.36,.26,.67h0c0,.39-.11,.76-.39,1.03-.37,.37-1.03,.54-1.87,.54-1.29,0-2.33-.39-2.46-.43h-.08c-.11,0-.17,.06-.19,.14l-.23,.58s-.02,.05-.02,.06c0,.09,.06,.12,.12,.13,.19,.08,1.32,.51,2.69,.51,1.21,0,2.35-.21,3.03-.96,.45-.51,.65-1.18,.65-1.82,0-.79-.26-1.22-.7-1.49-.51-.3-1.24-.37-1.94-.46-.48-.07-1.01-.13-1.37-.31-.3-.15-.5-.39-.5-.76,0-.34,.12-.69,.39-.93,.4-.36,1.09-.49,1.84-.49,.92,0,2.04,.26,2.26,.28h.03s.12-.03,.14-.12l.2-.66v-.04c0-.08-.03-.14-.14-.15"></path>
      <path class="cls-2" d="M188.44,53.6c-2.5,0-3.44,1.09-3.87,2.63-.25,.84-.39,1.91-.39,2.83,0,.82,.17,1.52,.67,2.02,.48,.48,1.27,.76,2.55,.76,3.25,0,3.87-1.87,4.17-4.11,.05-.43,.09-.85,.09-1.24,0-.88-.14-1.61-.67-2.12-.48-.48-1.27-.76-2.55-.76m1.84,4.12c-.25,1.88-.5,3.15-2.77,3.15-.75,0-1.24-.13-1.56-.39-.39-.31-.5-.81-.5-1.43,0-.73,.16-1.94,.33-2.65,.29-1.15,.85-1.85,2.53-1.85,.81,0,1.31,.15,1.62,.45,.34,.31,.45,.79,.45,1.38,0,.39-.05,.84-.11,1.35"></path>
      <path class="cls-2" d="M151.86,53.92c-.16-.04-1.15-.31-2.49-.31-.93,0-2.1,.19-2.82,.93-.45,.46-.67,1.12-.67,1.75,0,.52,.19,.9,.45,1.15,.56,.57,1.53,.66,2.01,.73,.75,.12,1.41,.13,1.77,.45,.17,.15,.26,.36,.26,.67h0c0,.39-.11,.76-.39,1.03-.37,.37-1.03,.54-1.87,.54-1.29,0-2.33-.39-2.46-.43h-.08c-.11,0-.17,.06-.19,.14l-.23,.58s-.02,.05-.02,.06c0,.09,.06,.12,.12,.13,.19,.08,1.32,.51,2.69,.51,1.21,0,2.35-.21,3.03-.96,.45-.51,.65-1.18,.65-1.82,0-.79-.26-1.22-.7-1.49-.51-.3-1.25-.37-1.94-.46-.48-.07-1.01-.13-1.37-.31-.3-.15-.5-.39-.5-.76,0-.34,.12-.69,.39-.93,.4-.36,1.09-.49,1.84-.49,.92,0,2.04,.26,2.26,.28h.03s.12-.03,.14-.12l.2-.66v-.04c0-.08-.03-.14-.14-.15"></path>
      <path class="cls-2" d="M173.49,53.6h-.05l-.87,.19c-.11,.03-.2,.08-.22,.19l-.62,4.83c-.14,1.12-.42,2.08-2.44,2.08-.56,0-.98-.07-1.29-.22-.47-.22-.67-.63-.67-1.22,0-.19,0-.37,.03-.58l.65-5.07v-.04c0-.08-.03-.15-.12-.15h-.05l-.87,.19c-.11,.03-.2,.08-.22,.19l-.61,4.75c-.05,.28-.06,.55-.06,.82,0,.79,.23,1.39,.81,1.78,.48,.33,1.21,.49,2.27,.49,3.22,0,3.62-1.64,3.83-3.12l.62-4.92v-.04c0-.08-.03-.15-.12-.15"></path>
      <path class="cls-2" d="M132.28,54.47l.08-.64s.01-.03,.01-.04c0-.15-.14-.18-.2-.18h-.39c-.75,0-2.18,.19-2.89,.49-.56,.24-.73,.43-.81,1.09l-.79,6.23h0c0,.13,.2,.22,.2,.22h.78c.14,0,.23-.09,.25-.22l.82-6.49c.9-.21,1.74-.28,2.77-.28,.12,0,.15-.07,.17-.18"></path>
      <path class="cls-2" d="M140.13,53.8h-.96c-.16,0-.25,.09-.3,.19l-2.85,6.79h-.4l-1.34-6.79c-.03-.1-.06-.19-.22-.19h-.9c-.11,0-.22,.09-.22,.19,0,.01,0,.03,.02,.04l1.65,7.37c.03,.15,.14,.24,.28,.24h.64l-.5,1.14c-.36,.84-.82,.99-1.63,.99-.31,0-.75-.01-.9-.01-.09,0-.19,.07-.19,.15l-.09,.66h0c0,.07,.03,.13,.16,.16,.29,.05,.57,.06,1.07,.06,1.66,0,2.21-.6,2.85-1.99l4-8.77s.01-.04,.01-.07c0-.09-.08-.15-.17-.15"></path>
      <path class="cls-2" d="M164.35,60.78h-.06c-.09,.03-.36,.06-.58,.06-.17,0-.36-.02-.48-.14-.09-.07-.14-.18-.14-.36s.06-.54,.08-.61l1.17-9.13v-.04c0-.07-.03-.15-.12-.15h-.05l-.87,.21c-.12,.01-.2,.06-.22,.18l-1.15,9.03c-.03,.27-.06,.52-.06,.81,0,.36,.12,.63,.31,.82,.23,.24,.59,.34,1.04,.34,.56,0,1.01-.12,1.15-.18,.03-.02,.12-.06,.12-.18v-.03l-.05-.52c0-.09-.05-.1-.09-.1"></path>
      <path class="cls-2" d="M157.3,53.6c-2.5,0-3.44,1.09-3.87,2.63-.25,.84-.39,1.91-.39,2.83,0,.82,.17,1.52,.67,2.02,.48,.48,1.27,.76,2.55,.76,3.25,0,3.87-1.87,4.17-4.11,.05-.43,.09-.85,.09-1.24,0-.88-.14-1.61-.67-2.12-.48-.48-1.27-.76-2.55-.76m1.84,4.12c-.25,1.88-.5,3.15-2.77,3.15-.75,0-1.24-.13-1.56-.39-.39-.31-.5-.81-.5-1.43,0-.73,.16-1.94,.33-2.65,.29-1.15,.85-1.85,2.53-1.85,.81,0,1.31,.15,1.62,.45,.34,.31,.45,.79,.45,1.38,0,.39-.05,.84-.11,1.35"></path>
      <path class="cls-1" d="M219.88,17.64c0,2.14-1.68,3.82-3.87,3.82s-3.89-1.68-3.89-3.82,1.73-3.77,3.89-3.77,3.87,1.68,3.87,3.77m-6.79,0c0,1.68,1.24,3.01,2.95,3.01s2.88-1.33,2.88-2.99-1.22-3.04-2.9-3.04-2.92,1.36-2.92,3.01m2.32,1.98h-.87v-3.77c.35-.07,.83-.11,1.45-.11,.71,0,1.04,.11,1.31,.28,.21,.16,.37,.46,.37,.83,0,.41-.32,.74-.78,.87v.05c.37,.14,.57,.41,.69,.92,.12,.58,.18,.81,.28,.94h-.94c-.12-.14-.18-.48-.3-.92-.07-.41-.3-.6-.78-.6h-.41v1.52Zm.02-2.14h.41c.48,0,.88-.16,.88-.55,0-.35-.25-.57-.81-.57-.23,0-.39,.02-.48,.04v1.08Z"></path>
      <path class="cls-1" d="M205.56,15.72c-1.38-1.33-3.51-1.91-6.44-1.91-2.22,0-4.6,.56-5.61,.83l.33-2.61h0s.85-6.97,.85-6.97v-.13c0-.44-.27-.62-.67-.62h-.22l-5.15,.84c-.62,.09-.89,.45-.93,1.07l-3.24,26.37c-.13,.84-.22,1.51-.22,2.09,0,1.2,.44,1.95,2.18,2.53,1.69,.58,4.71,1.07,8.17,1.07,7.1,0,10.17-2.44,11.68-7.46,.8-2.71,1.24-5.9,1.24-8.7,0-3.06-.62-5.11-1.95-6.39m-5.59,12.34c-.84,4.71-2.18,5.59-5.37,5.59-1.87,0-3.37-.36-3.37-.36l1.73-14.25s2.31-.58,4.08-.58c1.47,0,2.4,.18,2.97,.93,.4,.58,.58,1.46,.58,2.75,0,1.95-.27,4-.62,5.91"></path>
      <path class="cls-3" d="M23.4,31.84c1.16,1.15,1.98,2.56,2.58,4.29,1.34,3.85,1.5,10.96,1.26,14.97-.23,3.75-1.1,10.27-3.03,13.44,0,0-1.7,3.5-5.91,1.89h0c-.23-.09-.47-.18-.73-.3-1.91-.82-3.07-1.71-4.56-2.95-2.39-1.98-5.19-5.6-6.72-8.04-2.39-3.8-4.17-7.61-5.24-12.07-.01-.04-.02-.07-.04-.12C-.25,38.19,.03,33.69,.03,33.69c0,0,.02-.42,.08-.99,0-.13,.01-.24,.02-.31,.04-.4,.1-.8,.16-1.19,.88-5.81,3.88-9.46,10.67-7.5,0,0,7.33,2.68,12.44,8.13"></path>
      <path class="cls-3" d="M12.26,.74s-2.37,.65-3.37,1.11c-2.36,1.11-4.64,2.97-4.25,6.53,.29,2.63,2.36,5.67,3.98,7.56,.51,.6,1.85,1.97,2.34,2.41,3.46,3.11,4.65,4.11,9.6,6.7,1.18,.62,2.42,1.22,3.75,1.68,1.36,.48,3.12,1.03,4.39,.11,.62-.45,.71-1.73,.58-2.1-.14-.41-.97-.75-1.18-1.54-.29-1.06,.58-3.55,1-4.36,2.01-3.8,5.84-1.94,6.53-.03,.54,1.5-.34,3.1-1.01,4.06-.38,.55-.81,.97-1.16,1.56-.36,.59-.66,1.32-.19,2.06,.76,1.2,2.71,1.02,4.24,.62,3.1-.8,7.27-3.1,9.76-5.18,1.23-1.03,2.34-2.28,3.04-3.75,.64-1.33,.74-3.08,.24-4.56-.38-1.11-1.29-2.48-2.1-3.33-.45-.48-.84-.93-1.35-1.36-.59-.51-.81-.72-1.49-1.23-4.29-3.22-9.91-5.23-15.31-6.42-1.97-.44-4.02-.77-6.05-.99,0,0-6.56-.88-11.99,.45"></path>
      <path class="cls-3" d="M60.87,21.24c-1.98-.64-5.08,.17-6.85,.82-2.41,.89-3.47,1.3-5.79,2.41-1.6,.76-3.77,2.01-5.25,2.95-1.38,.88-2.35,1.58-3.61,2.51-.2,.15-.38,.3-.57,.45-1.83,1.48-3.12,2.92-3.95,5.3-1.49,4.25-2.25,14.74,.91,19.07,1.74,2.38,4.57,2.7,7.5,1.67,3.87-1.36,7.6-4.07,10.4-7.01l1.23-1.33c.1-.11,.13-.18,.24-.29,.89-.92,2.89-3.73,3.49-4.71,.52-.84,1.01-1.67,1.51-2.59,.94-1.72,1.81-3.75,2.5-5.7,.36-1.01,.69-2.09,.96-3.17,.28-.9,.53-2.52,.6-3.46,.31-3.99-.89-5.25-.89-5.25-.42-.66-1.38-1.36-2.41-1.69"></path>
    </g>
  </g>
</svg>
