<svg width="184" height="29" viewBox="0 0 184 29" fill="none" xmlns="http://www.w3.org/2000/svg">
<path d="M116.856 0.635818C113.4 1.77105 110.447 4.53345 109.295 7.74993C108.611 9.67983 108.575 10.5123 108.647 19.3293L108.755 28.8652H111.815H114.876L115.056 19.8969C115.236 11.5719 115.272 10.8529 115.992 9.86903C117.072 8.31755 118.224 7.82561 120.456 7.93914L122.436 8.05266L123.984 5.29027C124.848 3.77662 125.496 2.22514 125.424 1.88457C125.352 1.544 124.704 1.05207 123.876 0.825024C122.256 0.295248 118.224 0.219566 116.856 0.635818Z" fill="#1670A5"/>
<path d="M89.6021 1.20293C85.8579 2.48953 82.9417 5.21409 81.2495 8.96035C80.4575 10.7767 80.3135 13.6806 80.3135 14.7122C80.3135 15.7437 80.4215 18.5341 81.5016 20.8046C82.8697 23.7562 85.1378 26.0645 87.982 27.4646C89.7461 28.335 92.7343 28.4863 93.2744 28.4863C94.0844 28.4863 96.7666 28.3728 98.9268 27.2376C103.067 25.1185 105.623 21.2587 106.271 16.2258C106.379 15.2041 106.379 13.6905 106.235 12.9337L105.983 11.5335L104.759 14.1824C102.635 18.799 98.4587 21.8641 94.2104 21.8641C92.4463 21.8641 91.2942 21.1073 91.2942 19.9343C91.2942 19.6315 94.0664 16.4907 97.4147 12.9715C100.799 9.45228 103.535 6.34932 103.535 6.12227C103.535 5.36545 100.619 2.90578 98.5307 1.88407C96.1186 0.711 91.9423 0.408272 89.6021 1.20293ZM94.2104 7.10614C94.5705 7.33319 94.8945 7.82512 94.8945 8.16569C94.8945 9.1874 87.586 16.6421 86.9019 16.3772C86.1819 16.0745 85.5338 14.2581 85.5338 12.5931C85.5338 11.0038 87.298 8.16569 88.8101 7.37103C90.1782 6.65205 93.1304 6.53852 94.2104 7.10614Z" fill="#1670A5"/>
<path d="M157.647 1.23939C154.082 2.37462 151.562 4.68293 149.69 8.35351C148.79 10.1699 148.583 13.4434 148.583 14.5285C148.583 15.2362 148.826 19.2139 149.582 20.7275C151.49 24.5116 154.154 26.8578 157.827 28.1065C162.147 29.5445 167.619 27.9552 170.824 24.3224C172.372 22.5439 172.732 21.56 171.688 22.052C171.328 22.2412 170.139 22.6953 169.059 23.1115C164.523 24.7765 158.043 22.7709 156.243 19.1382C155.666 17.9651 155.666 17.8895 156.459 17.2462C157.179 16.6407 158.115 16.565 165.891 16.565H174.568L174.388 13.8026C173.92 6.31009 168.267 0.633936 161.355 0.709618C160.131 0.709618 158.475 0.936666 157.647 1.23939ZM164.415 6.83987C166.107 7.78589 167.547 9.94283 167.151 11.0024C166.935 11.57 166.215 11.6457 161.571 11.6457C156.135 11.6457 155.234 11.4186 155.63 10.1699C156.891 6.53714 160.995 4.98566 164.415 6.83987Z" fill="#1670A5"/>
<path d="M6.68805 1.77077C1.25167 2.906 -1.59253 9.03625 0.927647 14.2962C2.54776 17.664 4.88792 18.8371 9.85627 18.8371C13.8165 18.8371 15.1126 19.3669 14.3926 20.6156C14.0326 21.2211 13.2765 21.3346 7.55211 21.486L1.10766 21.6752V25.2701V28.865L7.04807 28.9785C14.2486 29.092 16.1567 28.7514 18.2088 26.8972C20.189 25.0809 21.089 23.0374 21.089 20.1615C21.089 17.3991 20.225 15.2422 18.5329 13.7664C16.5887 12.0257 15.3286 11.6473 11.4404 11.6473C7.4801 11.6473 6.18401 11.1175 6.90406 9.86875C7.26409 9.26329 8.02014 9.14977 13.2045 8.99841L19.1089 8.8092L19.2169 5.6684C19.2889 3.66282 19.1809 2.30054 18.8929 1.95997C18.5689 1.54372 17.3448 1.4302 13.2045 1.46804C10.3243 1.50588 7.37209 1.61941 6.68805 1.77077Z" fill="#1670A5"/>
<path d="M33.4024 1.84703C30.7383 2.33896 28.3621 3.70124 26.382 5.93386C23.8258 8.80978 23.1226 13.4927 23.1057 15.0536C23.0905 16.4649 23.7412 20.0977 24.2578 21.1838C26.5465 25.995 31.7463 29.2439 39.8109 28.9791L43.2311 28.8655V25.0814V21.2973L38.3708 21.1081C33.1864 20.9189 32.5384 20.6919 31.0263 18.8377C29.1542 16.4915 29.4782 13.0101 31.7103 10.9289C33.4024 9.3774 34.9506 8.99899 39.5589 8.99899H43.4471L43.3391 5.29056L43.2311 1.61998L39.2709 1.58214C37.1107 1.5443 34.4465 1.65782 33.4024 1.84703Z" fill="#1670A5"/>
<path d="M45.5713 15.053V28.6758H48.9915H52.4118V15.053V1.43023H48.9915H45.5713V15.053Z" fill="#1670A5"/>
<path d="M54.7511 1.88407C54.6431 2.14896 56.7312 8.24137 59.3594 15.4312L64.1117 28.4863H67.64H71.1682L76.2086 15.5069C79.0168 8.35489 81.1769 2.26249 81.0689 1.95976C80.8889 1.50566 80.0429 1.50566 77.7207 1.50566L74.5524 1.61919L71.3122 10.3983C69.5481 15.242 68 19.2153 67.892 19.2153C67.784 19.2153 66.3439 15.4312 64.6878 10.7767C63.0317 6.16011 61.5195 2.14896 61.3035 1.88407C61.0875 1.58134 59.9354 1.42998 57.9193 1.42998C55.8312 1.42998 54.8591 1.58134 54.7511 1.88407Z" fill="#1670A5"/>
<path d="M131.329 1.84673C123.876 3.39822 122.364 14.1072 129.061 17.7778C130.789 18.7238 131.329 18.8374 134.677 18.8374C137.593 18.8374 138.529 18.9509 138.961 19.4428C139.393 19.8969 139.429 20.1996 139.177 20.7673C138.817 21.4484 138.349 21.4862 132.301 21.4862H125.821L125.929 25.1568L126.037 28.8652H133.057C139.609 28.8652 140.186 28.7896 141.59 28.0327C147.278 24.8162 147.53 16.3399 142.058 12.8585C140.186 11.7232 139.933 11.6476 136.477 11.6476C132.589 11.6476 131.437 11.2313 131.689 9.90688C131.797 9.22574 132.193 9.18789 137.845 9.07437L143.894 8.99869L143.786 5.29027L143.678 1.61969L138.277 1.54401C135.325 1.54401 132.193 1.65753 131.329 1.84673Z" fill="#1670A5"/>
<path d="M178.473 6.60636V1.80273H180.106C180.461 1.80273 180.756 1.86685 180.99 1.99507C181.225 2.12329 181.401 2.30077 181.518 2.5275C181.634 2.75267 181.692 3.01302 181.692 3.30856C181.692 3.60253 181.633 3.86132 181.515 4.08492C181.399 4.30697 181.223 4.47975 180.987 4.60328C180.753 4.72682 180.459 4.78858 180.104 4.78858H178.866V4.16467H180.041C180.265 4.16467 180.447 4.13105 180.587 4.06382C180.729 3.99658 180.832 3.89885 180.898 3.77063C180.964 3.6424 180.996 3.48838 180.996 3.30856C180.996 3.12717 180.963 2.97002 180.896 2.83711C180.83 2.7042 180.726 2.60256 180.585 2.53219C180.445 2.46026 180.26 2.4243 180.032 2.4243H179.164V6.60636H178.473ZM180.735 4.4391L181.867 6.60636H181.079L179.969 4.4391H180.735Z" fill="#1670A5"/>
<path d="M183.65 4.19888C183.65 6.34031 181.998 8.04776 179.995 8.04776C177.991 8.04776 176.339 6.34031 176.339 4.19888C176.339 2.05745 177.991 0.35 179.995 0.35C181.998 0.35 183.65 2.05745 183.65 4.19888Z" stroke="#1670A5" stroke-width="0.7"/>
</svg>
